<?xml version="1.0" encoding="utf-8"?>
<!-- Generator: Adobe Illustrator 21.0.2, SVG Export Plug-In . SVG Version: 6.00 Build 0)  -->
<svg version="1.1" id="Layer_1" xmlns="http://www.w3.org/2000/svg" xmlns:xlink="http://www.w3.org/1999/xlink" x="0px" y="0px"
	 viewBox="0 0 512 512" style="enable-background:new 0 0 512 512;" xml:space="preserve">
<style type="text/css">
	.st0{fill:#FFFFFF;}
</style>
<path class="st0" d="M256,12.5c-134.5,0-243.5,109-243.5,243.5s109,243.5,243.5,243.5s243.5-109,243.5-243.5S390.5,12.5,256,12.5z
	 M413.9,220.1c-20.8,20.7-41.6,41.4-62.3,62.1c-18,18-35.8,36.1-53.8,54c-18.5,18.5-37,37.1-55.6,55.5c-8.8,8.8-21.2,8.7-30.1-0.1
	c-36-35.9-71.9-71.8-107.8-107.7c-2.1-2.1-4.3-4.2-6.4-6.3c-8.6-8.6-9.4-21.1-1.1-29.9c9.9-10.5,20.3-20.7,31-30.5
	c8-7.4,19.8-5.9,28.1,2.5c23.5,23.5,47.1,47,71.4,71.2c8-8.2,15.9-16.3,23.9-24.4c24-24,48.1-47.9,72.2-71.8
	c11.8-11.8,23.6-23.7,35.6-35.3c6.8-6.5,18.5-6.6,25.4-0.1c9.1,8.6,17.9,17.5,26.9,26.2c3.7,3.6,7.4,7,8.7,12.2
	C422.2,206.5,420.2,213.8,413.9,220.1z"/>
</svg>
